<svg width="1600" height="900" viewBox="0 0 1600 900" fill="none" xmlns="http://www.w3.org/2000/svg">
  <rect width="1600" height="900" fill="#F8F2E8"/>
  <circle cx="790" cy="304" r="194" fill="#FFCB63" fill-opacity="0.8"/>
  <circle cx="790" cy="304" r="262" fill="#FFE8B0" fill-opacity="0.42"/>
  <path d="M95 736C277 640 443 608 673 622C864 632 1008 696 1183 700C1294 702 1391 680 1505 632V900H95V736Z" fill="#FFF9EF"/>
  <path d="M216 602C324 670 411 692 533 690C633 688 717 658 803 645C911 628 1005 635 1124 686C1214 724 1317 736 1434 706" stroke="#D17B24" stroke-width="18" stroke-linecap="round"/>
  <path d="M276 544C412 614 557 610 694 535" stroke="#E5B44E" stroke-width="14" stroke-linecap="round"/>
  <path d="M942 534C1060 601 1188 602 1307 545" stroke="#E5B44E" stroke-width="14" stroke-linecap="round"/>
</svg>
